<svg xmlns="http://www.w3.org/2000/svg" viewBox="0 0 64 128" width="64" height="128">
  <path d="M 32,5 C 48,25 54,60 54,110 C 54,120 45,123 32,123 C 19,123 10,120 10,110 C 10,60 16,25 32,5 Z" fill="#5c2c16" stroke="#36190c" stroke-width="3"/>
  <path d="M 32,12 C 44,30 48,60 48,106 C 48,114 41,117 32,117 C 23,117 16,114 16,106 C 16,60 20,30 32,12 Z" fill="#d9a066"/>
  <line x1="26" y1="30" x2="26" y2="105" stroke="#b87843" stroke-width="1.5"/>
  <line x1="32" y1="15" x2="32" y2="115" stroke="#b87843" stroke-width="1.5"/>
  <line x1="38" y1="30" x2="38" y2="105" stroke="#b87843" stroke-width="1.5"/>
  <rect x="18" y="60" width="28" height="10" fill="#783d19" rx="2"/>
</svg>
